# Blender v2.79 (sub 0) OBJ File: 'quit.blend'
# www.blender.org
mtllib model.mtl
o instance_0.003_ID198
v 0.182056 0.023746 -0.053687
v 0.182056 0.398396 -0.002887
v 0.182056 0.023746 -0.002887
v 0.182056 0.398396 -0.053687
v 0.182056 0.398396 -0.053687
v 0.182056 0.023746 -0.053687
v 0.182056 0.398396 -0.002887
v 0.182056 0.023746 -0.002887
vn 1.0000 0.0000 0.0000
vn -1.0000 0.0000 0.0000
g instance_0.003_ID198___Gold_
usemtl __Gold_
s off
f 1//1 2//1 3//1
f 2//1 1//1 4//1
g instance_0.003_ID198___Chipboard_
usemtl __Chipboard_
f 5//2 6//2 7//2
f 8//2 7//2 6//2
o instance_0.002_ID185.003
v 0.118731 0.271407 0.015174
v -0.078120 0.042807 0.015174
v 0.118731 0.042807 0.015174
v -0.078120 0.271407 0.015174
v -0.078120 0.271407 0.015174
v 0.118731 0.271407 0.015174
v -0.078120 0.042807 0.015174
v 0.118731 0.042807 0.015174
vt 0.000000 0.000000
vt 0.000000 0.000000
vt 0.000000 0.000000
vt 0.000000 0.000000
vt 0.000000 1.000000
vt -1.000000 -0.000000
vt 0.000000 -0.000000
vt -1.000000 1.000000
vn 0.0000 0.0000 -1.0000
vn 0.0000 0.0000 1.0000
g instance_0.002_ID185.003___Chipboard_
usemtl __Chipboard_
s off
f 13/1/3 14/2/3 15/3/3
f 16/4/3 15/3/3 14/2/3
g instance_0.002_ID185.003___Burnt_Sienna_
usemtl __Burnt_Sienna_
f 9/5/4 10/6/4 11/7/4
f 10/6/4 9/5/4 12/8/4
o instance_0.001_ID179.002
v -0.141794 0.398396 -0.053687
v -0.141794 0.023746 -0.002887
v -0.141794 0.398396 -0.002887
v -0.141794 0.023746 -0.053687
v -0.141794 0.023746 -0.053687
v -0.141794 0.398396 -0.053687
v -0.141794 0.023746 -0.002887
v -0.141794 0.398396 -0.002887
vn -1.0000 0.0000 0.0000
vn 1.0000 0.0000 0.0000
g instance_0.001_ID179.002___Gold_
usemtl __Gold_
s off
f 17//5 18//5 19//5
f 18//5 17//5 20//5
g instance_0.001_ID179.002___Chipboard_
usemtl __Chipboard_
f 21//6 22//6 23//6
f 24//6 23//6 22//6
o instance_0_ID173.002
v -0.111488 0.012700 -0.029237
v 0.182056 0.000000 0.015174
v -0.141794 0.000000 0.015174
v 0.142512 0.012700 -0.029237
v 0.142512 0.012700 -0.029237
v -0.111488 0.012700 -0.029237
v 0.182056 0.000000 0.015174
v -0.141794 0.000000 0.015174
v 0.182056 0.000000 0.015174
v 0.118731 0.042807 0.015174
v -0.141794 0.000000 0.015174
v 0.182056 0.425450 0.015174
v 0.118731 0.271407 0.015174
v -0.078120 0.271407 0.015174
v -0.078120 0.042807 0.015174
v -0.141794 0.425450 0.015174
v 0.182056 0.425450 0.015174
v -0.078120 0.271407 0.015174
v -0.141794 0.425450 0.015174
v -0.078120 0.042807 0.015174
v 0.118731 0.042807 0.015174
v -0.141794 0.000000 0.015174
v 0.118731 0.271407 0.015174
v 0.182056 0.000000 0.015174
v -0.111488 0.012700 -0.029237
v -0.141794 0.000000 0.015174
v -0.141794 0.000000 -0.073726
v -0.141794 0.000000 -0.073726
v -0.141794 0.000000 0.015174
v -0.111488 0.012700 -0.029237
v 0.182056 0.000000 -0.073726
v -0.111488 0.012700 -0.029237
v -0.141794 0.000000 -0.073726
v 0.142512 0.012700 -0.029237
v 0.142512 0.012700 -0.029237
v 0.182056 0.000000 -0.073726
v -0.111488 0.012700 -0.029237
v -0.141794 0.000000 -0.073726
v 0.182056 0.000000 0.015174
v 0.142512 0.012700 -0.029237
v 0.182056 0.000000 -0.073726
v 0.182056 0.000000 -0.073726
v 0.142512 0.012700 -0.029237
v 0.182056 0.000000 0.015174
v 0.182056 0.000000 0.015174
v 0.182056 0.023746 -0.002887
v 0.182056 0.425450 0.015174
v 0.182056 0.000000 -0.073726
v 0.182056 0.023746 -0.053687
v 0.182056 0.398396 -0.053687
v 0.182056 0.398396 -0.002887
v 0.182056 0.425450 -0.073726
v 0.182056 0.000000 -0.073726
v 0.182056 0.398396 -0.053687
v 0.182056 0.425450 -0.073726
v 0.182056 0.398396 -0.002887
v 0.182056 0.023746 -0.002887
v 0.182056 0.425450 0.015174
v 0.182056 0.023746 -0.053687
v 0.182056 0.000000 0.015174
v -0.141794 0.425450 0.015174
v -0.141794 0.398396 -0.002887
v -0.141794 0.000000 0.015174
v -0.141794 0.425450 -0.073726
v -0.141794 0.398396 -0.053687
v -0.141794 0.023746 -0.053687
v -0.141794 0.023746 -0.002887
v -0.141794 0.000000 -0.073726
v -0.141794 0.425450 -0.073726
v -0.141794 0.023746 -0.053687
v -0.141794 0.000000 -0.073726
v -0.141794 0.023746 -0.002887
v -0.141794 0.398396 -0.002887
v -0.141794 0.000000 0.015174
v -0.141794 0.398396 -0.053687
v -0.141794 0.425450 0.015174
v -0.141794 0.425450 -0.073726
v 0.182056 0.000000 -0.073726
v -0.141794 0.000000 -0.073726
v 0.182056 0.425450 -0.073726
v 0.182056 0.425450 -0.073726
v -0.141794 0.425450 -0.073726
v 0.182056 0.000000 -0.073726
v -0.141794 0.000000 -0.073726
vn 0.0000 -0.9615 -0.2749
vn 0.0000 0.9615 0.2749
vn 0.0000 0.0000 1.0000
vn 0.0000 0.0000 -1.0000
vn 0.3865 -0.9223 0.0000
vn -0.3865 0.9223 0.0000
vn 0.0000 -0.9616 0.2745
vn 0.0000 0.9616 -0.2745
vn -0.3058 -0.9521 0.0000
vn 0.3058 0.9521 0.0000
vn 1.0000 0.0000 0.0000
vn -1.0000 0.0000 0.0000
g instance_0_ID173.002___Chipboard_
usemtl __Chipboard_
s off
f 25//7 26//7 27//7
f 26//7 25//7 28//7
f 29//8 30//8 31//8
f 32//8 31//8 30//8
f 33//9 34//9 35//9
f 34//9 33//9 36//9
f 34//9 36//9 37//9
f 37//9 36//9 38//9
f 35//9 39//9 40//9
f 39//9 35//9 34//9
f 40//9 39//9 38//9
f 40//9 38//9 36//9
f 41//10 42//10 43//10
f 42//10 44//10 43//10
f 45//10 46//10 44//10
f 43//10 44//10 46//10
f 42//10 41//10 47//10
f 47//10 41//10 45//10
f 41//10 48//10 45//10
f 46//10 45//10 48//10
f 49//11 50//11 51//11
f 52//12 53//12 54//12
f 55//13 56//13 57//13
f 56//13 55//13 58//13
f 59//14 60//14 61//14
f 62//14 61//14 60//14
f 63//15 64//15 65//15
f 66//16 67//16 68//16
f 69//17 70//17 71//17
f 70//17 69//17 72//17
f 70//17 72//17 73//17
f 73//17 72//17 74//17
f 71//17 75//17 76//17
f 75//17 71//17 70//17
f 76//17 75//17 74//17
f 76//17 74//17 72//17
f 77//18 78//18 79//18
f 78//18 80//18 79//18
f 81//18 82//18 80//18
f 79//18 80//18 82//18
f 78//18 77//18 83//18
f 83//18 77//18 81//18
f 77//18 84//18 81//18
f 82//18 81//18 84//18
f 85//18 86//18 87//18
f 86//18 85//18 88//18
f 86//18 88//18 89//18
f 89//18 88//18 90//18
f 87//18 91//18 92//18
f 91//18 87//18 86//18
f 92//18 91//18 90//18
f 92//18 90//18 88//18
f 93//17 94//17 95//17
f 94//17 96//17 95//17
f 97//17 98//17 96//17
f 95//17 96//17 98//17
f 94//17 93//17 99//17
f 99//17 93//17 97//17
f 93//17 100//17 97//17
f 98//17 97//17 100//17
f 101//10 102//10 103//10
f 102//10 101//10 104//10
f 105//9 106//9 107//9
f 108//9 107//9 106//9
