# Blender v2.79 (sub 0) OBJ File: 'quit.blend'
# www.blender.org
mtllib model.mtl
o SketchUp.001_ID11
v 0.354914 0.193987 -0.465406
v 0.354914 0.004456 0.464598
v 0.354914 0.000000 -0.464475
v 0.354914 0.198442 0.463668
v 0.354914 0.004456 0.464598
v -0.250669 0.198442 0.463668
v -0.250669 0.004456 0.464598
v 0.354914 0.198442 0.463668
v -0.250669 0.198442 0.463668
v -0.250669 0.000000 -0.464475
v -0.250669 0.004456 0.464598
v -0.250669 0.193987 -0.465406
vn 1.0000 0.0000 0.0000
vn 0.0000 0.0048 1.0000
vn -1.0000 0.0000 0.0000
g SketchUp.001_ID11_material_1.024
usemtl material_1.024
s off
f 1//1 2//1 3//1
f 2//1 1//1 4//1
f 5//2 6//2 7//2
f 6//2 5//2 8//2
f 9//3 10//3 11//3
f 10//3 9//3 12//3
o SketchUp_ID3
v 0.354914 0.193987 -0.465406
v -0.250669 0.000000 -0.464475
v -0.250669 0.193987 -0.465406
v 0.354914 0.000000 -0.464475
v -0.250669 0.198442 0.463668
v 0.354914 0.193987 -0.465406
v -0.250669 0.193987 -0.465406
v 0.354914 0.198442 0.463668
v 0.354914 0.004456 0.464598
v -0.250669 0.000000 -0.464475
v 0.354914 0.000000 -0.464475
v -0.250669 0.004456 0.464598
vn 0.0000 -0.0048 -1.0000
vn 0.0000 1.0000 -0.0048
vn 0.0000 -1.0000 0.0048
g SketchUp_ID3_material.017
usemtl material.017
s off
f 13//4 14//4 15//4
f 14//4 13//4 16//4
f 17//5 18//5 19//5
f 18//5 17//5 20//5
f 21//6 22//6 23//6
f 22//6 21//6 24//6
o image_1_ID29.002
v 0.354914 0.198452 0.465746
v 0.354914 0.193987 -0.465406
v -0.249695 0.198452 0.465746
v -0.249695 0.193987 -0.465406
v -0.249695 0.198452 0.465746
v 0.354914 0.193987 -0.465406
v 0.354914 0.198452 0.465746
v -0.249695 0.193987 -0.465406
vt 0.000000 1.000000
vt 0.000000 0.000000
vt 1.000000 1.000000
vt 1.000000 0.000000
vt 1.000000 1.000000
vt 0.000000 0.000000
vt 0.000000 1.000000
vt 1.000000 0.000000
vn -0.0000 1.0000 -0.0048
vn 0.0000 -1.0000 0.0048
g image_1_ID29.002_material.017
usemtl material.017
s off
f 25/1/7 26/2/7 27/3/7
f 28/4/7 27/3/7 26/2/7
f 29/5/8 30/6/8 31/7/8
f 30/6/8 29/5/8 32/8/8
o image_0_ID20.001
v -0.250669 0.004466 0.466677
v -0.250669 0.000000 -0.464475
v 0.353940 0.004466 0.466677
v 0.353940 0.000000 -0.464475
v 0.353940 0.004466 0.466677
v -0.250669 0.000000 -0.464475
v -0.250669 0.004466 0.466677
v 0.353940 0.000000 -0.464475
vt 0.000000 1.000000
vt 0.000000 0.000000
vt 1.000000 1.000000
vt 1.000000 0.000000
vt 1.000000 1.000000
vt 0.000000 0.000000
vt 0.000000 1.000000
vt 1.000000 0.000000
vn 0.0000 -1.0000 0.0048
vn 0.0000 1.0000 -0.0048
g image_0_ID20.001_material.017
usemtl material.017
s off
f 33/9/9 34/10/9 35/11/9
f 36/12/9 35/11/9 34/10/9
f 37/13/10 38/14/10 39/15/10
f 38/14/10 37/13/10 40/16/10
