# Blender v2.79 (sub 0) OBJ File: 'quit.blend'
# www.blender.org
mtllib model.mtl
o SketchUp.001_ID18.002
v 0.226761 0.518350 0.031354
v -0.137956 0.518350 -0.180245
v -0.137956 0.518350 0.031354
v 0.226761 0.518350 -0.180245
v 0.226761 0.000000 -0.180245
v 0.226761 0.518350 0.031354
v 0.226761 0.000000 0.031354
v 0.226761 0.518350 -0.180245
v -0.137956 0.518350 -0.180245
v 0.226761 0.000000 -0.180245
v -0.137956 0.000000 -0.180245
v 0.226761 0.518350 -0.180245
v -0.137956 0.518350 -0.180245
v -0.137956 0.000000 0.031354
v -0.137956 0.518350 0.031354
v -0.137956 0.000000 -0.180245
v 0.226761 0.518350 0.031354
v -0.137956 0.000000 0.031354
v 0.226761 0.000000 0.031354
v -0.137956 0.518350 0.031354
vn 0.0000 1.0000 0.0000
vn 1.0000 0.0000 0.0000
vn 0.0000 0.0000 -1.0000
vn -1.0000 0.0000 0.0000
vn 0.0000 0.0000 1.0000
g SketchUp.001_ID18.002_material.015
usemtl material.015
s off
f 1//1 2//1 3//1
f 2//1 1//1 4//1
f 5//2 6//2 7//2
f 6//2 5//2 8//2
f 9//3 10//3 11//3
f 10//3 9//3 12//3
f 13//4 14//4 15//4
f 14//4 13//4 16//4
f 17//5 18//5 19//5
f 18//5 17//5 20//5
o SketchUp_ID10
v 0.226761 0.000000 -0.180245
v -0.137956 0.000000 0.031354
v -0.137956 0.000000 -0.180245
v 0.226761 0.000000 0.031354
vn 0.0000 -1.0000 0.0000
g SketchUp_ID10_Color_C01.003
usemtl Color_C01.003
s off
f 21//6 22//6 23//6
f 22//6 21//6 24//6
o image_4_ID78.001
v -0.137956 0.518350 -0.180245
v -0.137956 0.518350 0.031354
v 0.226761 0.518350 -0.180245
v 0.226761 0.518350 0.031354
v 0.226761 0.518350 -0.180245
v -0.137956 0.518350 0.031354
v -0.137956 0.518350 -0.180245
v 0.226761 0.518350 0.031354
vt 0.000000 1.000000
vt 0.000000 0.000000
vt 1.000000 1.000000
vt 1.000000 0.000000
vt 1.000000 1.000000
vt 0.000000 0.000000
vt 0.000000 1.000000
vt 1.000000 0.000000
vn 0.0000 1.0000 0.0000
vn 0.0000 -1.0000 0.0000
g image_4_ID78.001_material_3.014
usemtl material_3.014
s off
f 25/1/7 26/2/7 27/3/7
f 28/4/7 27/3/7 26/2/7
f 29/5/8 30/6/8 31/7/8
f 30/6/8 29/5/8 32/8/8
o image_3_ID64
v -0.137956 0.518350 -0.180245
v -0.137956 0.000000 -0.180245
v -0.137956 0.518350 0.031354
v -0.137956 0.000000 0.031354
v -0.137956 0.518350 0.031354
v -0.137956 0.000000 -0.180245
v -0.137956 0.518350 -0.180245
v -0.137956 0.000000 0.031354
vt 0.000000 1.000000
vt 0.000000 0.000000
vt 1.000000 1.000000
vt 1.000000 0.000000
vt 1.000000 1.000000
vt 0.000000 0.000000
vt 0.000000 1.000000
vt 1.000000 0.000000
vn -1.0000 0.0000 0.0000
vn 1.0000 -0.0000 -0.0000
g image_3_ID64_material_2.018
usemtl material_2.018
s off
f 33/9/9 34/10/9 35/11/9
f 36/12/9 35/11/9 34/10/9
f 37/13/10 38/14/10 39/15/10
f 38/14/10 37/13/10 40/16/10
o image_2_ID50
v 0.226761 0.518350 -0.180245
v 0.226761 0.000000 -0.180245
v -0.137956 0.518350 -0.180245
v -0.137956 0.000000 -0.180245
v -0.137956 0.518350 -0.180245
v 0.226761 0.000000 -0.180245
v 0.226761 0.518350 -0.180245
v -0.137956 0.000000 -0.180245
vt 0.000000 1.000000
vt 0.000000 0.000000
vt 1.000000 1.000000
vt 1.000000 0.000000
vt 1.000000 1.000000
vt 0.000000 0.000000
vt 0.000000 1.000000
vt 1.000000 0.000000
vn -0.0000 -0.0000 -1.0000
vn 0.0000 0.0000 1.0000
g image_2_ID50_material_1.022
usemtl material_1.022
s off
f 41/17/11 42/18/11 43/19/11
f 44/20/11 43/19/11 42/18/11
f 45/21/12 46/22/12 47/23/12
f 46/22/12 45/21/12 48/24/12
o image_1_ID36.001
v 0.226761 0.518350 0.031354
v 0.226761 0.000000 0.031354
v 0.226761 0.518350 -0.180244
v 0.226761 0.000000 -0.180244
v 0.226761 0.518350 -0.180244
v 0.226761 0.000000 0.031354
v 0.226761 0.518350 0.031354
v 0.226761 0.000000 -0.180244
vt 0.000000 1.000000
vt 0.000000 0.000000
vt 1.000000 1.000000
vt 1.000000 0.000000
vt 1.000000 1.000000
vt 0.000000 0.000000
vt 0.000000 1.000000
vt 1.000000 0.000000
vn 1.0000 0.0000 0.0000
vn -1.0000 -0.0000 -0.0000
g image_1_ID36.001_material_0.012
usemtl material_0.012
s off
f 49/25/13 50/26/13 51/27/13
f 52/28/13 51/27/13 50/26/13
f 53/29/14 54/30/14 55/31/14
f 54/30/14 53/29/14 56/32/14
o image_0_ID27
v -0.137956 0.518350 0.031354
v -0.137956 0.000000 0.031354
v 0.226760 0.518350 0.031354
v 0.226760 0.000000 0.031354
v 0.226760 0.518350 0.031354
v -0.137956 0.000000 0.031354
v -0.137956 0.518350 0.031354
v 0.226760 0.000000 0.031354
vt 0.000000 1.000000
vt 0.000000 0.000000
vt 1.000000 1.000000
vt 1.000000 0.000000
vt 1.000000 1.000000
vt 0.000000 0.000000
vt 0.000000 1.000000
vt 1.000000 0.000000
vn 0.0000 -0.0000 1.0000
vn 0.0000 0.0000 -1.0000
g image_0_ID27_material.015
usemtl material.015
s off
f 57/33/15 58/34/15 59/35/15
f 60/36/15 59/35/15 58/34/15
f 61/37/16 62/38/16 63/39/16
f 62/38/16 61/37/16 64/40/16
