# Blender v2.79 (sub 0) OBJ File: 'quit.blend'
# www.blender.org
mtllib model.mtl
o image_1_ID36.001_material_0.000
v 0.131131 0.299751 0.018131
v 0.131131 -0.000000 0.018131
v 0.131131 0.299751 -0.104231
v 0.131131 0.000000 -0.104231
v 0.131131 0.299751 -0.104231
v 0.131131 -0.000000 0.018131
v 0.131131 0.299751 0.018131
v 0.131131 0.000000 -0.104231
vt 0.000000 1.000000
vt 0.000000 0.000000
vt 1.000000 1.000000
vt 1.000000 0.000000
vt 1.000000 1.000000
vt 0.000000 0.000000
vt 0.000000 1.000000
vt 1.000000 0.000000
vn 1.0000 0.0000 0.0000
vn -1.0000 0.0000 0.0000
g image_1_ID36.001_material_0.000_image_1_ID36.001_material_0.000_material_0.055
usemtl material_0.055
s 1
f 1/1/1 2/2/1 3/3/1
f 4/4/1 3/3/1 2/2/1
f 5/5/2 6/6/2 7/7/2
f 6/6/2 5/5/2 8/8/2
o image_2_ID50_material_1.000
v 0.131131 0.299751 -0.104232
v 0.131131 0.000000 -0.104232
v -0.079777 0.299751 -0.104232
v -0.079777 0.000000 -0.104232
v -0.079777 0.299751 -0.104232
v 0.131131 0.000000 -0.104232
v 0.131131 0.299751 -0.104232
v -0.079777 0.000000 -0.104232
vt 0.000000 1.000000
vt 0.000000 0.000000
vt 1.000000 1.000000
vt 1.000000 0.000000
vt 1.000000 1.000000
vt 0.000000 0.000000
vt 0.000000 1.000000
vt 1.000000 0.000000
vn 0.0000 0.0000 -1.0000
vn 0.0000 -0.0000 1.0000
g image_2_ID50_material_1.000_image_2_ID50_material_1.000_material_1.526
usemtl material_1.526
s 1
f 9/9/3 10/10/3 11/11/3
f 12/12/3 11/11/3 10/10/3
f 13/13/4 14/14/4 15/15/4
f 14/14/4 13/13/4 16/16/4
o image_4_ID78.001_material_3.000
v -0.079777 0.299751 -0.104232
v -0.079777 0.299751 0.018131
v 0.131131 0.299751 -0.104232
v 0.131131 0.299751 0.018131
v 0.131131 0.299751 -0.104232
v -0.079777 0.299751 0.018131
v -0.079777 0.299751 -0.104232
v 0.131131 0.299751 0.018131
vt 0.000000 1.000000
vt 0.000000 0.000000
vt 1.000000 1.000000
vt 1.000000 0.000000
vt 1.000000 1.000000
vt 0.000000 0.000000
vt 0.000000 1.000000
vt 1.000000 0.000000
vn 0.0000 1.0000 0.0000
vn 0.0000 -1.0000 0.0000
g image_4_ID78.001_material_3.000_image_4_ID78.001_material_3.000_material_3.031
usemtl material_3.031
s 1
f 17/17/5 18/18/5 19/19/5
f 20/20/5 19/19/5 18/18/5
f 21/21/6 22/22/6 23/23/6
f 22/22/6 21/21/6 24/24/6
o image_0_ID27_material.000
v -0.079777 0.299751 0.018131
v -0.079777 -0.000000 0.018131
v 0.131130 0.299751 0.018131
v 0.131130 -0.000000 0.018131
v 0.131130 0.299751 0.018131
v -0.079777 -0.000000 0.018131
v -0.079777 0.299751 0.018131
v 0.131130 -0.000000 0.018131
vt 0.000000 1.000000
vt 0.000000 0.000000
vt 1.000000 1.000000
vt 1.000000 0.000000
vt 1.000000 1.000000
vt 0.000000 0.000000
vt 0.000000 1.000000
vt 1.000000 0.000000
vn 0.0000 -0.0000 1.0000
vn 0.0000 0.0000 -1.0000
g image_0_ID27_material.000_image_0_ID27_material.000_material.8751
usemtl material.8751
s 1
f 25/25/7 26/26/7 27/27/7
f 28/28/7 27/27/7 26/26/7
f 29/29/8 30/30/8 31/31/8
f 30/30/8 29/29/8 32/32/8
o image_3_ID64_material_2.000
v -0.079777 0.299751 -0.104232
v -0.079777 0.000000 -0.104232
v -0.079777 0.299751 0.018131
v -0.079777 -0.000000 0.018131
v -0.079777 0.299751 0.018131
v -0.079777 0.000000 -0.104232
v -0.079777 0.299751 -0.104232
v -0.079777 -0.000000 0.018131
vt 0.000000 1.000000
vt 0.000000 0.000000
vt 1.000000 1.000000
vt 1.000000 0.000000
vt 1.000000 1.000000
vt 0.000000 0.000000
vt 0.000000 1.000000
vt 1.000000 0.000000
vn -1.0000 0.0000 0.0000
vn 1.0000 0.0000 0.0000
g image_3_ID64_material_2.000_image_3_ID64_material_2.000_material_2.057
usemtl material_2.057
s 1
f 33/33/9 34/34/9 35/35/9
f 36/36/9 35/35/9 34/34/9
f 37/37/10 38/38/10 39/39/10
f 38/38/10 37/37/10 40/40/10
o SketchUp.001_ID18.002_material.000
v 0.131131 0.299751 0.018131
v -0.079777 0.299751 -0.104232
v -0.079777 0.299751 0.018131
v 0.131131 0.299751 -0.104232
v 0.131131 0.000000 -0.104232
v 0.131131 0.299751 0.018131
v 0.131131 -0.000000 0.018131
v 0.131131 0.299751 -0.104232
v -0.079777 0.299751 -0.104232
v 0.131131 0.000000 -0.104232
v -0.079777 0.000000 -0.104232
v 0.131131 0.299751 -0.104232
v -0.079777 0.299751 -0.104232
v -0.079777 -0.000000 0.018131
v -0.079777 0.299751 0.018131
v -0.079777 0.000000 -0.104232
v 0.131131 0.299751 0.018131
v -0.079777 -0.000000 0.018131
v 0.131131 -0.000000 0.018131
v -0.079777 0.299751 0.018131
vt 0.000000 0.000000
vt 1.000000 0.000000
vt 1.000000 1.000000
vt 0.000000 0.000000
vt 1.000000 0.000000
vt 1.000000 1.000000
vt 0.000000 0.000000
vt 1.000000 0.000000
vt 1.000000 1.000000
vt 0.000000 0.000000
vt 1.000000 0.000000
vt 1.000000 1.000000
vt 0.000000 0.000000
vt 1.000000 0.000000
vt 1.000000 1.000000
vt 0.000000 0.000000
vt 1.000000 0.000000
vt 1.000000 1.000000
vt 0.000000 0.000000
vt 1.000000 0.000000
vt 1.000000 1.000000
vt 0.000000 0.000000
vt 1.000000 0.000000
vt 1.000000 1.000000
vt 0.000000 0.000000
vt 1.000000 0.000000
vt 1.000000 1.000000
vt 0.000000 0.000000
vt 1.000000 0.000000
vt 1.000000 1.000000
vn 0.0000 1.0000 0.0000
vn 1.0000 -0.0000 0.0000
vn 0.0000 0.0000 -1.0000
vn -1.0000 -0.0000 0.0000
vn 0.0000 -0.0000 1.0000
g SketchUp.001_ID18.002_material.000_SketchUp.001_ID18.002_material.000_material.8751
usemtl material.8751
s 1
f 41/41/11 42/42/11 43/43/11
f 42/44/11 41/45/11 44/46/11
f 45/47/12 46/48/12 47/49/12
f 46/50/12 45/51/12 48/52/12
f 49/53/13 50/54/13 51/55/13
f 50/56/13 49/57/13 52/58/13
f 53/59/14 54/60/14 55/61/14
f 54/62/14 53/63/14 56/64/14
f 57/65/15 58/66/15 59/67/15
f 58/68/15 57/69/15 60/70/15
o SketchUp_ID10_Color_C01.000
v 0.131131 0.000000 -0.104232
v -0.079777 -0.000000 0.018131
v -0.079777 0.000000 -0.104232
v 0.131131 -0.000000 0.018131
vt 0.000000 0.000000
vt 1.000000 0.000000
vt 1.000000 1.000000
vt 0.000000 0.000000
vt 1.000000 0.000000
vt 1.000000 1.000000
vn 0.0000 -1.0000 -0.0000
g SketchUp_ID10_Color_C01.000_SketchUp_ID10_Color_C01.000_Color_C01.005
usemtl Color_C01.005
s 1
f 61/71/16 62/72/16 63/73/16
f 62/74/16 61/75/16 64/76/16
