# Blender v2.79 (sub 0) OBJ File: 'quit.blend'
# www.blender.org
mtllib model.mtl
o instance_0.005_ID70
v -0.089535 0.000000 -0.000605
v 0.176522 0.000000 -0.089290
v 0.176522 0.000000 -0.000605
v -0.089535 0.000000 -0.089290
vt 0.000000 1.000000
vt 0.924812 0.000000
vt 0.924812 1.000000
vt 0.000000 0.000000
vn 0.0000 -1.0000 0.0000
g instance_0.005_ID70__2
usemtl _2
s off
f 1/1/1 2/2/1 3/3/1
f 2/2/1 1/1/1 4/4/1
o instance_0.004_ID57
v 0.176522 0.354743 -0.000605
v 0.176522 0.000000 -0.089290
v 0.176522 0.354743 -0.089290
v 0.176522 0.000000 -0.000605
vt 0.000000 0.984199
vt 1.000000 0.000000
vt 1.000000 0.984199
vt 0.000000 0.000000
vn 1.0000 0.0000 -0.0000
g instance_0.004_ID57__0000
usemtl _0000
s off
f 5/5/2 6/6/2 7/7/2
f 6/6/2 5/5/2 8/8/2
o instance_0.003_ID44.001
v -0.089535 0.000000 -0.000605
v -0.089535 0.354743 -0.089290
v -0.089535 0.000000 -0.089290
v -0.089535 0.354743 -0.000605
vt 0.978633 0.000000
vt 0.000000 1.000000
vt 0.000000 0.000000
vt 0.978633 1.000000
vn -1.0000 0.0000 0.0000
g instance_0.003_ID44.001__00
usemtl _00
s off
f 9/9/3 10/10/3 11/11/3
f 10/10/3 9/9/3 12/12/3
o instance_0.002_ID31.002
v 0.176522 0.354743 -0.000605
v -0.089535 0.000000 -0.000605
v 0.176522 0.000000 -0.000605
v -0.089535 0.354743 -0.000605
vt 0.000000 1.000000
vt -0.949180 0.000000
vt 0.000000 0.000000
vt -0.949180 1.000000
vn 0.0000 0.0000 1.0000
g instance_0.002_ID31.002__000
usemtl _000
s off
f 13/13/4 14/14/4 15/15/4
f 14/14/4 13/13/4 16/16/4
o instance_0.001_ID18
v -0.089535 0.354743 -0.089290
v 0.176522 0.000000 -0.089290
v -0.089535 0.000000 -0.089290
v 0.176522 0.354743 -0.089290
vt 0.913534 1.000000
vt 0.000000 0.000000
vt 0.913534 0.000000
vt 0.000000 1.000000
vn 0.0000 0.0000 -1.0000
g instance_0.001_ID18__0
usemtl _0
s off
f 17/17/5 18/18/5 19/19/5
f 18/18/5 17/17/5 20/20/5
o instance_0_ID5.002
v -0.089535 0.354743 -0.089290
v 0.176522 0.354743 -0.000605
v 0.176522 0.354743 -0.089290
v -0.089535 0.354743 -0.000605
vt 0.929293 0.000000
vt 0.000000 1.000000
vt 0.000000 0.000000
vt 0.929293 1.000000
vn 0.0000 1.0000 -0.0000
g instance_0_ID5.002__1
usemtl _1
s off
f 21/21/6 22/22/6 23/23/6
f 22/22/6 21/21/6 24/24/6
