# Blender v2.79 (sub 0) OBJ File: 'quit.blend'
# www.blender.org
mtllib model.mtl
o instance_0.002_ID33.030
v -0.036875 0.228600 0.009585
v -0.036727 0.228600 -0.010137
v -0.038099 0.228600 -0.000286
v -0.033137 0.228600 0.018802
v -0.032852 0.228600 -0.019297
v -0.027142 0.228600 0.026738
v -0.026738 0.228600 -0.027142
v -0.019297 0.228600 0.032852
v -0.018802 0.228600 -0.033137
v -0.010137 0.228600 0.036727
v -0.009585 0.228600 -0.036875
v -0.000286 0.228600 0.038099
v 0.000286 0.228600 -0.038099
v 0.009585 0.228600 0.036875
v 0.010137 0.228600 -0.036727
v 0.018802 0.228600 0.033137
v 0.019297 0.228600 -0.032852
v 0.026738 0.228600 0.027142
v 0.027142 0.228600 -0.026738
v 0.032852 0.228600 0.019297
v 0.033137 0.228600 -0.018802
v 0.036727 0.228600 0.010137
v 0.036875 0.228600 -0.009585
v 0.038099 0.228600 0.000286
v 0.038099 0.228600 0.000286
v 0.036727 0.228600 0.010137
v 0.036875 0.228600 -0.009585
v 0.033137 0.228600 -0.018802
v 0.032852 0.228600 0.019297
v 0.027142 0.228600 -0.026738
v 0.026738 0.228600 0.027142
v 0.019297 0.228600 -0.032852
v 0.018802 0.228600 0.033137
v 0.010137 0.228600 -0.036727
v 0.009585 0.228600 0.036875
v 0.000286 0.228600 -0.038099
v -0.000286 0.228600 0.038099
v -0.009585 0.228600 -0.036875
v -0.010137 0.228600 0.036727
v -0.018802 0.228600 -0.033137
v -0.019297 0.228600 0.032852
v -0.026738 0.228600 -0.027142
v -0.027142 0.228600 0.026738
v -0.032852 0.228600 -0.019297
v -0.033137 0.228600 0.018802
v -0.036727 0.228600 -0.010137
v -0.036875 0.228600 0.009585
v -0.038099 0.228600 -0.000286
vt 0.000000 0.000000
vt 0.000000 0.000000
vt 0.000000 0.000000
vt 0.000000 0.000000
vt 0.000000 0.000000
vt 0.000000 0.000000
vt 0.000000 0.000000
vt 0.000000 0.000000
vt 0.000000 0.000000
vt 0.000000 0.000000
vt 0.000000 0.000000
vt 0.000000 0.000000
vt 0.000000 0.000000
vt 0.000000 0.000000
vt 0.000000 0.000000
vt 0.000000 0.000000
vt 0.000000 0.000000
vt 0.000000 0.000000
vt 0.000000 0.000000
vt 0.000000 0.000000
vt 0.000000 0.000000
vt 0.000000 0.000000
vt 0.000000 0.000000
vt 0.000000 0.000000
vt 0.478683 0.165413
vt 0.470064 0.122320
vt 0.470992 0.208590
vt 0.447515 0.248911
vt 0.445720 0.082249
vt 0.409850 0.283626
vt 0.407313 0.047931
vt 0.360566 0.310371
vt 0.357459 0.021704
vt 0.303021 0.327322
vt 0.299555 0.005356
vt 0.241136 0.333324
vt 0.237548 0.000000
vt 0.179128 0.327969
vt 0.175662 0.006002
vt 0.121225 0.311620
vt 0.118117 0.022953
vt 0.071370 0.285393
vt 0.068833 0.049698
vt 0.032963 0.251075
vt 0.031169 0.084413
vt 0.008620 0.211004
vt 0.007691 0.124734
vt 0.000000 0.167911
vn 0.0000 1.0000 -0.0000
vn 0.0000 -1.0000 0.0000
g instance_0.002_ID33.030___LightGray_.016
usemtl __LightGray_.016
s off
f 1/1/1 2/2/1 3/3/1
f 2/2/1 1/1/1 4/4/1
f 2/2/1 4/4/1 5/5/1
f 5/5/1 4/4/1 6/6/1
f 5/5/1 6/6/1 7/7/1
f 7/7/1 6/6/1 8/8/1
f 7/7/1 8/8/1 9/9/1
f 9/9/1 8/8/1 10/10/1
f 9/9/1 10/10/1 11/11/1
f 11/11/1 10/10/1 12/12/1
f 11/11/1 12/12/1 13/13/1
f 13/13/1 12/12/1 14/14/1
f 13/13/1 14/14/1 15/15/1
f 15/15/1 14/14/1 16/16/1
f 15/15/1 16/16/1 17/17/1
f 17/17/1 16/16/1 18/18/1
f 17/17/1 18/18/1 19/19/1
f 19/19/1 18/18/1 20/20/1
f 19/19/1 20/20/1 21/21/1
f 21/21/1 20/20/1 22/22/1
f 21/21/1 22/22/1 23/23/1
f 23/23/1 22/22/1 24/24/1
g instance_0.002_ID33.030_Pringles.001
usemtl Pringles.001
f 25/25/2 26/26/2 27/27/2
f 27/27/2 26/26/2 28/28/2
f 26/26/2 29/29/2 28/28/2
f 28/28/2 29/29/2 30/30/2
f 29/29/2 31/31/2 30/30/2
f 30/30/2 31/31/2 32/32/2
f 31/31/2 33/33/2 32/32/2
f 32/32/2 33/33/2 34/34/2
f 33/33/2 35/35/2 34/34/2
f 34/34/2 35/35/2 36/36/2
f 35/35/2 37/37/2 36/36/2
f 36/36/2 37/37/2 38/38/2
f 37/37/2 39/39/2 38/38/2
f 38/38/2 39/39/2 40/40/2
f 39/39/2 41/41/2 40/40/2
f 40/40/2 41/41/2 42/42/2
f 41/41/2 43/43/2 42/42/2
f 42/42/2 43/43/2 44/44/2
f 43/43/2 45/45/2 44/44/2
f 44/44/2 45/45/2 46/46/2
f 45/45/2 47/47/2 46/46/2
f 48/48/2 46/46/2 47/47/2
o instance_0.001_ID20.017
v 0.026738 0.228600 0.027142
v 0.018802 0.000000 0.033137
v 0.026738 0.000000 0.027142
v 0.018802 0.228600 0.033137
v 0.018802 0.228600 0.033137
v 0.026738 0.228600 0.027142
v 0.018802 0.000000 0.033137
v 0.026738 0.000000 0.027142
v 0.032852 0.000000 0.019297
v 0.032852 0.228600 0.019297
v 0.032852 0.228600 0.019297
v 0.032852 0.000000 0.019297
v 0.009585 0.000000 0.036875
v 0.009585 0.228600 0.036875
v 0.009585 0.228600 0.036875
v 0.009585 0.000000 0.036875
v 0.036727 0.000000 0.010137
v 0.036727 0.228600 0.010137
v 0.036727 0.228600 0.010137
v 0.036727 0.000000 0.010137
v -0.000286 0.000000 0.038099
v -0.000286 0.228600 0.038099
v -0.000286 0.228600 0.038099
v -0.000286 0.000000 0.038099
v 0.038099 0.000000 0.000286
v 0.038099 0.228600 0.000286
v 0.038099 0.228600 0.000286
v 0.038099 0.000000 0.000286
v -0.010137 0.000000 0.036727
v -0.010137 0.228600 0.036727
v -0.010137 0.228600 0.036727
v -0.010137 0.000000 0.036727
v 0.036875 0.000000 -0.009585
v 0.036875 0.228600 -0.009585
v 0.036875 0.228600 -0.009585
v 0.036875 0.000000 -0.009585
v -0.019297 0.000000 0.032852
v -0.019297 0.228600 0.032852
v -0.019297 0.228600 0.032852
v -0.019297 0.000000 0.032852
v 0.033137 0.000000 -0.018802
v 0.033137 0.228600 -0.018802
v 0.033137 0.228600 -0.018802
v 0.033137 0.000000 -0.018802
v -0.027142 0.000000 0.026738
v -0.027142 0.228600 0.026738
v -0.027142 0.228600 0.026738
v -0.027142 0.000000 0.026738
v 0.027142 0.000000 -0.026738
v 0.027142 0.228600 -0.026738
v 0.027142 0.228600 -0.026738
v 0.027142 0.000000 -0.026738
v -0.033137 0.228600 0.018802
v -0.033137 0.000000 0.018802
v -0.033137 0.000000 0.018802
v -0.033137 0.228600 0.018802
v 0.019297 0.228600 -0.032852
v 0.019297 0.000000 -0.032852
v 0.019297 0.228600 -0.032852
v 0.019297 0.000000 -0.032852
v -0.036875 0.228600 0.009585
v -0.036875 0.000000 0.009585
v -0.036875 0.000000 0.009585
v -0.036875 0.228600 0.009585
v 0.010137 0.228600 -0.036727
v 0.010137 0.000000 -0.036727
v 0.010137 0.228600 -0.036727
v 0.010137 0.000000 -0.036727
v -0.038099 0.228600 -0.000286
v -0.038099 0.000000 -0.000286
v -0.038099 0.000000 -0.000286
v -0.038099 0.228600 -0.000286
v 0.000286 0.228600 -0.038099
v 0.000286 0.000000 -0.038099
v 0.000286 0.228600 -0.038099
v 0.000286 0.000000 -0.038099
v -0.036727 0.228600 -0.010137
v -0.036727 0.000000 -0.010137
v -0.036727 0.000000 -0.010137
v -0.036727 0.228600 -0.010137
v -0.009585 0.228600 -0.036875
v -0.009585 0.000000 -0.036875
v -0.009585 0.228600 -0.036875
v -0.009585 0.000000 -0.036875
v -0.032852 0.228600 -0.019297
v -0.032852 0.000000 -0.019297
v -0.032852 0.000000 -0.019297
v -0.032852 0.228600 -0.019297
v -0.018802 0.228600 -0.033137
v -0.018802 0.000000 -0.033137
v -0.018802 0.228600 -0.033137
v -0.018802 0.000000 -0.033137
v -0.026738 0.228600 -0.027142
v -0.026738 0.000000 -0.027142
v -0.026738 0.000000 -0.027142
v -0.026738 0.228600 -0.027142
vt 0.304003 1.000000
vt 0.366485 1.000000
vt 0.304003 0.000000
vt 0.366485 0.000000
vt 0.367147 1.000000
vt 0.367147 0.000000
vt 0.304665 1.000000
vt 0.304665 0.000000
vt 0.280494 1.000000
vt 0.342976 1.000000
vt 0.280494 0.000000
vt 0.342976 0.000000
vt 0.344918 1.000000
vt 0.344918 0.000000
vt 0.282436 1.000000
vt 0.282436 0.000000
vt 0.235741 1.000000
vt 0.298223 1.000000
vt 0.235741 0.000000
vt 0.298223 0.000000
vt 0.301313 1.000000
vt 0.301313 0.000000
vt 0.238830 1.000000
vt 0.238830 0.000000
vt 0.172794 1.000000
vt 0.235276 1.000000
vt 0.172794 0.000000
vt 0.235276 0.000000
vt 0.239302 1.000000
vt 0.239302 0.000000
vt 0.176820 1.000000
vt 0.176820 0.000000
vt 0.095942 1.000000
vt 0.158424 1.000000
vt 0.095942 0.000000
vt 0.158424 0.000000
vt 0.163113 1.000000
vt 0.163113 0.000000
vt 0.100630 1.000000
vt 0.100630 0.000000
vt 0.010422 1.000000
vt 0.072905 1.000000
vt 0.010422 0.000000
vt 0.072905 0.000000
vt 0.077936 1.000000
vt 0.077936 0.000000
vt 0.015454 1.000000
vt 0.015454 0.000000
vt -0.077936 0.000000
vt -0.077936 1.000000
vt -0.015454 0.000000
vt -0.015454 1.000000
vt -0.072905 1.000000
vt -0.010422 1.000000
vt -0.072905 0.000000
vt -0.010422 0.000000
vt -0.163113 0.000000
vt -0.163113 1.000000
vt -0.100630 0.000000
vt -0.100630 1.000000
vt -0.158424 1.000000
vt -0.095942 1.000000
vt -0.158424 0.000000
vt -0.095942 0.000000
vt -0.239302 0.000000
vt -0.239302 1.000000
vt -0.176820 0.000000
vt -0.176820 1.000000
vt -0.235276 1.000000
vt -0.172794 1.000000
vt -0.235276 0.000000
vt -0.172794 0.000000
vt -0.301313 0.000000
vt -0.301313 1.000000
vt -0.238830 0.000000
vt -0.238830 1.000000
vt -0.298223 1.000000
vt -0.235741 1.000000
vt -0.298223 0.000000
vt -0.235741 0.000000
vt -0.344918 0.000000
vt -0.344918 1.000000
vt -0.282436 0.000000
vt -0.282436 1.000000
vt -0.342976 1.000000
vt -0.280494 1.000000
vt -0.342976 0.000000
vt -0.280494 0.000000
vt -0.367147 0.000000
vt -0.367147 1.000000
vt -0.304665 0.000000
vt -0.304665 1.000000
vt -0.366485 1.000000
vt -0.304003 1.000000
vt -0.366485 0.000000
vt -0.304003 0.000000
vt 1.127903 1.000000
vt 1.065241 0.000000
vt 1.127903 0.000000
vt 1.065241 1.000000
vt 1.190564 0.000000
vt 1.190564 1.000000
vt 1.002580 0.000000
vt 1.002580 1.000000
vt 1.253225 0.000000
vt 1.253225 1.000000
vt 0.939919 0.000000
vt 0.939919 1.000000
vt 1.315886 0.000000
vt 1.315886 1.000000
vt 0.877258 0.000000
vt 0.877258 1.000000
vt 1.378548 0.000000
vt 1.378548 1.000000
vt 0.814596 0.000000
vt 0.814596 1.000000
vt 1.441209 0.000000
vt 1.441209 1.000000
vt 0.751935 0.000000
vt 0.751935 1.000000
vt 1.503870 0.000000
vt 1.503870 1.000000
vt 0.689274 1.000000
vt 0.689274 0.000000
vt 0.062661 1.000000
vt -0.000000 0.000000
vt 0.062661 0.000000
vt -0.000000 1.000000
vt 0.626613 1.000000
vt 0.626613 0.000000
vt 0.125323 1.000000
vt 0.125323 0.000000
vt 0.563951 1.000000
vt 0.563951 0.000000
vt 0.187984 1.000000
vt 0.187984 0.000000
vt 0.501290 1.000000
vt 0.501290 0.000000
vt 0.250645 1.000000
vt 0.250645 0.000000
vt 0.438629 1.000000
vt 0.438629 0.000000
vt 0.313306 1.000000
vt 0.313306 0.000000
vt 0.375968 1.000000
vt 0.375968 0.000000
vn -0.4935 0.0000 -0.8697
vn -0.7018 0.0000 -0.7124
vn -0.8622 0.0000 -0.5065
vn -0.2516 0.0000 -0.9678
vn -0.9640 0.0000 -0.2660
vn 0.0075 0.0000 -1.0000
vn -1.0000 0.0000 -0.0075
vn 0.2660 0.0000 -0.9640
vn -0.9678 0.0000 0.2516
vn 0.5065 0.0000 -0.8622
vn -0.8697 0.0000 0.4935
vn 0.7124 0.0000 -0.7018
vn -0.7124 0.0000 0.7018
vn 0.8697 0.0000 -0.4935
vn -0.5065 0.0000 0.8622
vn 0.9678 0.0000 -0.2516
vn -0.2660 0.0000 0.9640
vn 1.0000 0.0000 0.0075
vn -0.0075 0.0000 1.0000
vn 0.9640 0.0000 0.2660
vn 0.2516 0.0000 0.9678
vn 0.8622 0.0000 0.5065
vn 0.4935 0.0000 0.8697
vn 0.7018 0.0000 0.7124
g instance_0.001_ID20.017_Pringles.001
usemtl Pringles.001
s 1
f 53/49/3 54/50/4 55/51/3
f 56/52/4 55/51/3 54/50/4
f 59/53/5 60/54/5 54/55/4
f 56/56/4 54/55/4 60/54/5
f 63/57/6 53/58/3 64/59/6
f 55/60/3 64/59/6 53/58/3
f 67/61/7 68/62/7 59/63/5
f 60/64/5 59/63/5 68/62/7
f 71/65/8 63/66/6 72/67/8
f 64/68/6 72/67/8 63/66/6
f 75/69/9 76/70/9 67/71/7
f 68/72/7 67/71/7 76/70/9
f 79/73/10 71/74/8 80/75/10
f 72/76/8 80/75/10 71/74/8
f 83/77/11 84/78/11 75/79/9
f 76/80/9 75/79/9 84/78/11
f 87/81/12 79/82/10 88/83/12
f 80/84/10 88/83/12 79/82/10
f 91/85/13 92/86/13 83/87/11
f 84/88/11 83/87/11 92/86/13
f 95/89/14 87/90/12 96/91/14
f 88/92/12 96/91/14 87/90/12
f 99/93/15 100/94/15 91/95/13
f 92/96/13 91/95/13 100/94/15
f 103/97/16 104/98/16 96/99/14
f 95/100/14 96/99/14 104/98/16
f 99/101/15 107/102/17 100/103/15
f 108/104/17 100/103/15 107/102/17
f 111/105/18 112/106/18 103/107/16
f 104/108/16 103/107/16 112/106/18
f 107/109/17 115/110/19 108/111/17
f 116/112/19 108/111/17 115/110/19
f 119/113/20 120/114/20 111/115/18
f 112/116/18 111/115/18 120/114/20
f 115/117/19 123/118/21 116/119/19
f 124/120/21 116/119/19 123/118/21
f 127/121/22 128/122/22 119/123/20
f 120/124/20 119/123/20 128/122/22
f 123/125/21 131/126/23 124/127/21
f 132/128/23 124/127/21 131/126/23
f 135/129/24 136/130/24 127/131/22
f 128/132/22 127/131/22 136/130/24
f 131/133/23 139/134/25 132/135/23
f 140/136/25 132/135/23 139/134/25
f 143/137/26 144/138/26 135/139/24
f 136/140/24 135/139/24 144/138/26
f 139/141/25 144/142/26 140/143/25
f 143/144/26 140/143/25 144/142/26
g instance_0.001_ID20.017_Pringles_0.001
usemtl Pringles_0.001
f 49/145/26 50/146/25 51/147/26
f 50/146/25 49/145/26 52/148/25
f 57/149/24 49/145/26 51/147/26
f 49/145/26 57/149/24 58/150/24
f 52/148/25 61/151/23 50/146/25
f 61/151/23 52/148/25 62/152/23
f 65/153/22 58/150/24 57/149/24
f 58/150/24 65/153/22 66/154/22
f 62/152/23 69/155/21 61/151/23
f 69/155/21 62/152/23 70/156/21
f 73/157/20 66/154/22 65/153/22
f 66/154/22 73/157/20 74/158/20
f 70/156/21 77/159/19 69/155/21
f 77/159/19 70/156/21 78/160/19
f 81/161/18 74/158/20 73/157/20
f 74/158/20 81/161/18 82/162/18
f 78/160/19 85/163/17 77/159/19
f 85/163/17 78/160/19 86/164/17
f 89/165/16 82/162/18 81/161/18
f 82/162/18 89/165/16 90/166/16
f 86/164/17 93/167/15 85/163/17
f 93/167/15 86/164/17 94/168/15
f 97/169/14 90/166/16 89/165/16
f 90/166/16 97/169/14 98/170/14
f 101/171/13 93/167/15 94/168/15
f 93/167/15 101/171/13 102/172/13
f 105/173/12 97/174/14 106/175/12
f 97/174/14 105/173/12 98/176/14
f 109/177/11 102/172/13 101/171/13
f 102/172/13 109/177/11 110/178/11
f 113/179/10 106/175/12 114/180/10
f 106/175/12 113/179/10 105/173/12
f 117/181/9 110/178/11 109/177/11
f 110/178/11 117/181/9 118/182/9
f 121/183/8 114/180/10 122/184/8
f 114/180/10 121/183/8 113/179/10
f 125/185/7 118/182/9 117/181/9
f 118/182/9 125/185/7 126/186/7
f 129/187/6 122/184/8 130/188/6
f 122/184/8 129/187/6 121/183/8
f 133/189/5 126/186/7 125/185/7
f 126/186/7 133/189/5 134/190/5
f 137/191/3 130/188/6 138/192/3
f 130/188/6 137/191/3 129/187/6
f 141/193/4 134/190/5 133/189/5
f 134/190/5 141/193/4 142/194/4
f 141/193/4 138/192/3 142/194/4
f 138/192/3 141/193/4 137/191/3
o instance_0_ID5.040
v -0.036727 0.000000 -0.010137
v -0.036875 0.000000 0.009585
v -0.038099 0.000000 -0.000286
v -0.033137 0.000000 0.018802
v -0.032852 0.000000 -0.019297
v -0.027142 0.000000 0.026738
v -0.026738 0.000000 -0.027142
v -0.019297 0.000000 0.032852
v -0.018802 0.000000 -0.033137
v -0.010137 0.000000 0.036727
v -0.009585 0.000000 -0.036875
v -0.000286 0.000000 0.038099
v 0.000286 0.000000 -0.038099
v 0.009585 0.000000 0.036875
v 0.010137 0.000000 -0.036727
v 0.018802 0.000000 0.033137
v 0.019297 0.000000 -0.032852
v 0.026738 0.000000 0.027142
v 0.027142 0.000000 -0.026738
v 0.032852 0.000000 0.019297
v 0.033137 0.000000 -0.018802
v 0.036727 0.000000 0.010137
v 0.036875 0.000000 -0.009585
v 0.038099 0.000000 0.000286
v 0.038099 0.000000 0.000286
v 0.036875 0.000000 -0.009585
v 0.036727 0.000000 0.010137
v 0.033137 0.000000 -0.018802
v 0.032852 0.000000 0.019297
v 0.027142 0.000000 -0.026738
v 0.026738 0.000000 0.027142
v 0.019297 0.000000 -0.032852
v 0.018802 0.000000 0.033137
v 0.010137 0.000000 -0.036727
v 0.009585 0.000000 0.036875
v 0.000286 0.000000 -0.038099
v -0.000286 0.000000 0.038099
v -0.009585 0.000000 -0.036875
v -0.010137 0.000000 0.036727
v -0.018802 0.000000 -0.033137
v -0.019297 0.000000 0.032852
v -0.026738 0.000000 -0.027142
v -0.027142 0.000000 0.026738
v -0.032852 0.000000 -0.019297
v -0.033137 0.000000 0.018802
v -0.036727 0.000000 -0.010137
v -0.036875 0.000000 0.009585
v -0.038099 0.000000 -0.000286
vt 0.000000 0.000000
vt 0.000000 0.000000
vt 0.000000 0.000000
vt 0.000000 0.000000
vt 0.000000 0.000000
vt 0.000000 0.000000
vt 0.000000 0.000000
vt 0.000000 0.000000
vt 0.000000 0.000000
vt 0.000000 0.000000
vt 0.000000 0.000000
vt 0.000000 0.000000
vt 0.000000 0.000000
vt 0.000000 0.000000
vt 0.000000 0.000000
vt 0.000000 0.000000
vt 0.000000 0.000000
vt 0.000000 0.000000
vt 0.000000 0.000000
vt 0.000000 0.000000
vt 0.000000 0.000000
vt 0.000000 0.000000
vt 0.000000 0.000000
vt 0.000000 0.000000
vt -0.478683 0.165413
vt -0.470992 0.208590
vt -0.470064 0.122320
vt -0.447515 0.248911
vt -0.445720 0.082249
vt -0.409850 0.283626
vt -0.407313 0.047931
vt -0.360566 0.310371
vt -0.357459 0.021704
vt -0.303021 0.327322
vt -0.299555 0.005356
vt -0.241136 0.333324
vt -0.237548 0.000000
vt -0.179128 0.327969
vt -0.175662 0.006002
vt -0.121225 0.311620
vt -0.118117 0.022953
vt -0.071370 0.285393
vt -0.068833 0.049698
vt -0.032963 0.251075
vt -0.031169 0.084413
vt -0.008620 0.211004
vt -0.007691 0.124734
vt 0.000000 0.167911
vn 0.0000 -1.0000 0.0000
vn 0.0000 1.0000 0.0000
g instance_0_ID5.040___LightGray_.016
usemtl __LightGray_.016
s off
f 145/195/27 146/196/27 147/197/27
f 146/196/27 145/195/27 148/198/27
f 148/198/27 145/195/27 149/199/27
f 148/198/27 149/199/27 150/200/27
f 150/200/27 149/199/27 151/201/27
f 150/200/27 151/201/27 152/202/27
f 152/202/27 151/201/27 153/203/27
f 152/202/27 153/203/27 154/204/27
f 154/204/27 153/203/27 155/205/27
f 154/204/27 155/205/27 156/206/27
f 156/206/27 155/205/27 157/207/27
f 156/206/27 157/207/27 158/208/27
f 158/208/27 157/207/27 159/209/27
f 158/208/27 159/209/27 160/210/27
f 160/210/27 159/209/27 161/211/27
f 160/210/27 161/211/27 162/212/27
f 162/212/27 161/211/27 163/213/27
f 162/212/27 163/213/27 164/214/27
f 164/214/27 163/213/27 165/215/27
f 164/214/27 165/215/27 166/216/27
f 166/216/27 165/215/27 167/217/27
f 166/216/27 167/217/27 168/218/27
g instance_0_ID5.040_Pringles.001
usemtl Pringles.001
f 169/219/28 170/220/28 171/221/28
f 170/220/28 172/222/28 171/221/28
f 171/221/28 172/222/28 173/223/28
f 172/222/28 174/224/28 173/223/28
f 173/223/28 174/224/28 175/225/28
f 174/224/28 176/226/28 175/225/28
f 175/225/28 176/226/28 177/227/28
f 176/226/28 178/228/28 177/227/28
f 177/227/28 178/228/28 179/229/28
f 178/228/28 180/230/28 179/229/28
f 179/229/28 180/230/28 181/231/28
f 180/230/28 182/232/28 181/231/28
f 181/231/28 182/232/28 183/233/28
f 182/232/28 184/234/28 183/233/28
f 183/233/28 184/234/28 185/235/28
f 184/234/28 186/236/28 185/235/28
f 185/235/28 186/236/28 187/237/28
f 186/236/28 188/238/28 187/237/28
f 187/237/28 188/238/28 189/239/28
f 188/238/28 190/240/28 189/239/28
f 189/239/28 190/240/28 191/241/28
f 192/242/28 191/241/28 190/240/28
