# Blender v2.79 (sub 0) OBJ File: 'quit.blend'
# www.blender.org
mtllib model.mtl
o SketchUp.004_ID44.003
v -0.035348 0.195768 -0.060866
v -0.046691 0.020379 -0.038638
v -0.046691 0.195768 -0.038638
v -0.035348 0.020379 -0.060866
v -0.052008 0.020379 -0.014174
v -0.052008 0.195768 -0.014174
v -0.018751 0.195768 -0.079342
v -0.018751 0.020379 -0.079342
v -0.050936 0.020379 0.010861
v -0.050936 0.195768 0.010861
v 0.001969 0.020379 -0.092806
v 0.001969 0.195768 -0.092806
v -0.043547 0.020379 0.034760
v -0.043547 0.195768 0.034760
v 0.025399 0.020379 -0.100342
v 0.025399 0.195768 -0.100342
v -0.030347 0.020379 0.055893
v -0.030347 0.195768 0.055893
v -0.012234 0.195768 0.072822
v -0.012234 0.020379 0.072822
v 0.009558 0.195768 0.084392
v 0.009558 0.020379 0.084392
v 0.033543 0.195768 0.089815
v 0.033543 0.020379 0.089815
v 0.058087 0.195768 0.088722
v 0.058087 0.020379 0.088722
v 0.081517 0.195768 0.081186
v 0.081517 0.020379 0.081186
v 0.102236 0.195768 0.067721
v 0.102236 0.020379 0.067721
v 0.118833 0.020379 0.049246
v 0.118833 0.195768 0.049246
v 0.130177 0.020379 0.027018
v 0.130177 0.195768 0.027018
v 0.135493 0.020379 0.002553
v 0.135493 0.195768 0.002553
v 0.134421 0.020379 -0.022481
v 0.134421 0.195768 -0.022481
v 0.127033 0.020379 -0.046380
v 0.127033 0.195768 -0.046380
v 0.113832 0.020379 -0.067514
v 0.113832 0.195768 -0.067514
v 0.095719 0.195768 -0.084443
v 0.095719 0.020379 -0.084443
v 0.073927 0.195768 -0.096013
v 0.073927 0.020379 -0.096013
v 0.061935 0.195768 -0.098724
v 0.061935 0.020379 -0.098724
vt 0.261679 1.036286
vt 0.348905 -0.000000
vt 0.348905 1.036286
vt 0.261679 -0.000000
vt 0.436132 -0.000000
vt 0.436132 1.036286
vt 0.174453 1.036286
vt 0.174453 -0.000000
vt 0.523358 -0.000000
vt 0.523358 1.036286
vt 0.087226 -0.000000
vt 0.087226 1.036286
vt 0.610584 -0.000000
vt 0.610584 1.036286
vt 0.000000 -0.000000
vt 0.000000 1.036286
vt 0.697811 -0.000000
vt 0.697811 1.036286
vt 0.785037 1.036286
vt 0.785037 -0.000000
vt 0.872263 1.036286
vt 0.872263 -0.000000
vt 0.959490 1.036286
vt 0.959490 -0.000000
vt 1.046716 1.036286
vt 1.046716 -0.000000
vt 1.133942 1.036286
vt 1.133942 -0.000000
vt 1.221168 1.036286
vt 1.221168 -0.000000
vt 1.308395 -0.000000
vt 1.308395 1.036286
vt 1.395621 -0.000000
vt 1.395621 1.036286
vt 1.482847 -0.000000
vt 1.482847 1.036286
vt 1.570074 -0.000000
vt 1.570074 1.036286
vt 1.657300 -0.000000
vt 1.657300 1.036286
vt 1.744526 -0.000000
vt 1.744526 1.036286
vt 1.831753 1.036286
vt 1.831753 -0.000000
vt 1.918979 1.036286
vt 1.918979 -0.000000
vt 1.962592 1.036286
vt 1.962592 -0.000000
vn -0.8242 0.0000 -0.5662
vn -0.9418 0.0000 -0.3362
vn -0.9963 0.0000 -0.0855
vn -0.6500 0.0000 -0.7599
vn -0.9854 0.0000 0.1705
vn -0.4293 0.0000 -0.9031
vn -0.9093 0.0000 0.4160
vn -0.3062 0.0000 -0.9520
vn -0.7720 0.0000 0.6355
vn -0.5809 0.0000 0.8140
vn -0.3478 0.0000 0.9376
vn -0.0888 0.0000 0.9960
vn 0.1769 0.0000 0.9842
vn 0.4293 0.0000 0.9031
vn 0.6500 0.0000 0.7599
vn 0.8242 0.0000 0.5662
vn 0.9418 0.0000 0.3362
vn 0.9963 0.0000 0.0855
vn 0.9854 0.0000 -0.1705
vn 0.9093 0.0000 -0.4160
vn 0.7720 0.0000 -0.6355
vn 0.5809 0.0000 -0.8140
vn 0.3478 0.0000 -0.9376
vn 0.2205 0.0000 -0.9754
g SketchUp.004_ID44.003_Color_C06
usemtl Color_C06
s 1
f 1/1/1 2/2/2 3/3/2
f 2/2/2 1/1/1 4/4/1
f 3/3/2 5/5/3 6/6/3
f 5/5/3 3/3/2 2/2/2
f 7/7/4 4/4/1 1/1/1
f 4/4/1 7/7/4 8/8/4
f 6/6/3 9/9/5 10/10/5
f 9/9/5 6/6/3 5/5/3
f 7/7/4 11/11/6 8/8/4
f 11/11/6 7/7/4 12/12/6
f 10/10/5 13/13/7 14/14/7
f 13/13/7 10/10/5 9/9/5
f 12/12/6 15/15/8 11/11/6
f 15/15/8 12/12/6 16/16/8
f 14/14/7 17/17/9 18/18/9
f 17/17/9 14/14/7 13/13/7
f 19/19/10 17/17/9 20/20/10
f 17/17/9 19/19/10 18/18/9
f 21/21/11 20/20/10 22/22/11
f 20/20/10 21/21/11 19/19/10
f 23/23/12 22/22/11 24/24/12
f 22/22/11 23/23/12 21/21/11
f 25/25/13 24/24/12 26/26/13
f 24/24/12 25/25/13 23/23/12
f 27/27/14 26/26/13 28/28/14
f 26/26/13 27/27/14 25/25/13
f 29/29/15 28/28/14 30/30/15
f 28/28/14 29/29/15 27/27/14
f 31/31/16 29/29/15 30/30/15
f 29/29/15 31/31/16 32/32/16
f 33/33/17 32/32/16 31/31/16
f 32/32/16 33/33/17 34/34/17
f 35/35/18 34/34/17 33/33/17
f 34/34/17 35/35/18 36/36/18
f 37/37/19 36/36/18 35/35/18
f 36/36/18 37/37/19 38/38/19
f 39/39/20 38/38/19 37/37/19
f 38/38/19 39/39/20 40/40/20
f 41/41/21 40/40/20 39/39/20
f 40/40/20 41/41/21 42/42/21
f 43/43/22 41/41/21 44/44/22
f 41/41/21 43/43/22 42/42/21
f 45/45/23 44/44/22 46/46/23
f 44/44/22 45/45/23 43/43/22
f 47/47/24 46/46/23 48/48/24
f 46/46/23 47/47/24 45/45/23
o SketchUp.003_ID38.002
v -0.045586 0.005158 -0.031357
v -0.041230 0.005158 -0.030226
v -0.044193 0.005158 -0.006972
v -0.036475 0.005158 -0.054081
v -0.032546 0.005158 -0.051883
v -0.021981 0.005158 -0.073594
v -0.018747 0.005158 -0.070460
v -0.003092 0.005158 -0.088567
v -0.000787 0.005158 -0.084697
v 0.018904 0.005158 -0.097979
v 0.020105 0.005158 -0.093637
v 0.042509 0.005158 -0.101190
v 0.042509 0.005158 -0.096684
v 0.064914 0.005158 -0.093637
v 0.066114 0.005158 -0.097979
v 0.085806 0.005158 -0.084697
v 0.088111 0.005158 -0.088567
v 0.103766 0.005158 -0.070460
v 0.107000 0.005158 -0.073594
v 0.117565 0.005158 -0.051883
v 0.121494 0.005158 -0.054081
v 0.126248 0.005158 -0.030226
v 0.130605 0.005158 -0.031357
v 0.129212 0.005158 -0.006972
v -0.045586 0.005158 0.017414
v -0.048694 0.005158 -0.006972
v -0.041230 0.005158 0.016283
v -0.036475 0.005158 0.040138
v -0.032546 0.005158 0.037939
v -0.021981 0.005158 0.059651
v -0.018747 0.005158 0.056517
v -0.003092 0.005158 0.074624
v -0.000787 0.005158 0.070754
v 0.018904 0.005158 0.084036
v 0.020105 0.005158 0.079694
v 0.042509 0.005158 0.087247
v 0.042509 0.005158 0.082741
v 0.066114 0.005158 0.084036
v 0.064914 0.005158 0.079694
v 0.085806 0.005158 0.070754
v 0.088111 0.005158 0.074624
v 0.103766 0.005158 0.056517
v 0.107000 0.005158 0.059651
v 0.117565 0.005158 0.037939
v 0.121494 0.005158 0.040138
v 0.126248 0.005158 0.016283
v 0.130605 0.005158 0.017414
v 0.133713 0.005158 -0.006972
vn 0.0000 -1.0000 0.0000
g SketchUp.003_ID38.002_material.12823
usemtl material.12823
s off
f 49//25 50//25 51//25
f 50//25 49//25 52//25
f 50//25 52//25 53//25
f 53//25 52//25 54//25
f 53//25 54//25 55//25
f 55//25 54//25 56//25
f 55//25 56//25 57//25
f 57//25 56//25 58//25
f 57//25 58//25 59//25
f 59//25 58//25 60//25
f 59//25 60//25 61//25
f 61//25 60//25 62//25
f 62//25 60//25 63//25
f 62//25 63//25 64//25
f 64//25 63//25 65//25
f 64//25 65//25 66//25
f 66//25 65//25 67//25
f 66//25 67//25 68//25
f 68//25 67//25 69//25
f 68//25 69//25 70//25
f 70//25 69//25 71//25
f 70//25 71//25 72//25
f 49//25 73//25 74//25
f 73//25 49//25 51//25
f 73//25 51//25 75//25
f 73//25 75//25 76//25
f 76//25 75//25 77//25
f 76//25 77//25 78//25
f 78//25 77//25 79//25
f 78//25 79//25 80//25
f 80//25 79//25 81//25
f 80//25 81//25 82//25
f 82//25 81//25 83//25
f 82//25 83//25 84//25
f 84//25 83//25 85//25
f 84//25 85//25 86//25
f 86//25 85//25 87//25
f 86//25 87//25 88//25
f 86//25 88//25 89//25
f 89//25 88//25 90//25
f 89//25 90//25 91//25
f 91//25 90//25 92//25
f 91//25 92//25 93//25
f 93//25 92//25 94//25
f 93//25 94//25 95//25
f 95//25 94//25 72//25
f 95//25 72//25 71//25
f 95//25 71//25 96//25
o SketchUp.002_ID30.003
v -0.041230 0.005158 -0.030226
v -0.041230 0.005158 0.016283
v -0.044193 0.005158 -0.006972
v -0.032546 0.005158 0.037939
v -0.032546 0.005158 -0.051883
v -0.018747 0.005158 -0.070460
v -0.018747 0.005158 0.056517
v -0.000787 0.005158 0.070754
v -0.000787 0.005158 -0.084697
v 0.020105 0.005158 0.079694
v 0.020105 0.005158 -0.093637
v 0.042509 0.005158 0.082741
v 0.042509 0.005158 -0.096684
v 0.064914 0.005158 -0.093637
v 0.064914 0.005158 0.079694
v 0.085806 0.005158 0.070754
v 0.085806 0.005158 -0.084697
v 0.103766 0.005158 0.056517
v 0.103766 0.005158 -0.070460
v 0.117565 0.005158 0.037939
v 0.117565 0.005158 -0.051883
v 0.126248 0.005158 0.016283
v 0.126248 0.005158 -0.030226
v 0.129212 0.005158 -0.006972
vn 0.0000 -1.0000 0.0000
g SketchUp.002_ID30.003_material.12823
usemtl material.12823
s off
f 97//26 98//26 99//26
f 98//26 97//26 100//26
f 100//26 97//26 101//26
f 100//26 101//26 102//26
f 100//26 102//26 103//26
f 103//26 102//26 104//26
f 104//26 102//26 105//26
f 104//26 105//26 106//26
f 106//26 105//26 107//26
f 106//26 107//26 108//26
f 108//26 107//26 109//26
f 108//26 109//26 110//26
f 108//26 110//26 111//26
f 111//26 110//26 112//26
f 112//26 110//26 113//26
f 112//26 113//26 114//26
f 114//26 113//26 115//26
f 114//26 115//26 116//26
f 116//26 115//26 117//26
f 116//26 117//26 118//26
f 118//26 117//26 119//26
f 118//26 119//26 120//26
o SketchUp.001_ID24.003
v -0.000787 0.209340 0.070754
v 0.020105 0.005158 0.079694
v -0.000787 0.005158 0.070754
v 0.020105 0.209340 0.079694
v -0.018747 0.209340 0.056517
v -0.018747 0.005158 0.056517
v 0.042509 0.005158 0.082741
v 0.042509 0.209340 0.082741
v -0.032546 0.005158 0.037939
v -0.032546 0.209340 0.037939
v 0.064914 0.005158 0.079694
v 0.064914 0.209340 0.079694
v -0.041230 0.005158 0.016283
v -0.041230 0.209340 0.016283
v 0.085806 0.005158 0.070754
v 0.085806 0.209340 0.070754
v -0.044193 0.005158 -0.006972
v -0.044193 0.209340 -0.006972
v 0.103766 0.005158 0.056517
v 0.103766 0.209340 0.056517
v -0.041230 0.005158 -0.030226
v -0.041230 0.209340 -0.030226
v 0.117565 0.209340 0.037939
v 0.117565 0.005158 0.037939
v -0.032546 0.005158 -0.051883
v -0.032546 0.209340 -0.051883
v 0.126248 0.209340 0.016283
v 0.126248 0.005158 0.016283
v -0.018747 0.005158 -0.070460
v -0.018747 0.209340 -0.070460
v 0.129212 0.209340 -0.006972
v 0.129212 0.005158 -0.006972
v -0.000787 0.209340 -0.084697
v -0.000787 0.005158 -0.084697
v 0.126248 0.209340 -0.030226
v 0.126248 0.005158 -0.030226
v 0.020105 0.209340 -0.093637
v 0.020105 0.005158 -0.093637
v 0.117565 0.209340 -0.051883
v 0.117565 0.005158 -0.051883
v 0.042509 0.209340 -0.096684
v 0.042509 0.005158 -0.096684
v 0.103766 0.209340 -0.070460
v 0.103766 0.005158 -0.070460
v 0.064914 0.209340 -0.093637
v 0.064914 0.005158 -0.093637
v 0.085806 0.005158 -0.084697
v 0.085806 0.209340 -0.084697
vn 0.5118 0.0000 -0.8591
vn 0.2665 0.0000 -0.9638
vn 0.7181 0.0000 -0.6959
vn 0.0000 0.0000 -1.0000
vn 0.8727 0.0000 -0.4882
vn -0.2665 0.0000 -0.9638
vn 0.9679 0.0000 -0.2513
vn -0.5118 0.0000 -0.8591
vn 1.0000 0.0000 0.0000
vn -0.7181 0.0000 -0.6959
vn 0.9679 0.0000 0.2513
vn -0.8727 0.0000 -0.4882
vn 0.8727 0.0000 0.4882
vn -0.9679 0.0000 -0.2513
vn 0.7181 0.0000 0.6959
vn -1.0000 0.0000 0.0000
vn 0.5118 0.0000 0.8591
vn -0.9679 0.0000 0.2513
vn 0.2665 0.0000 0.9638
vn -0.8727 0.0000 0.4882
vn 0.0000 0.0000 1.0000
vn -0.7181 0.0000 0.6959
vn -0.2665 0.0000 0.9638
vn -0.5118 0.0000 0.8591
g SketchUp.001_ID24.003_Color_C05
usemtl Color_C05
s 1
f 121//27 122//28 123//27
f 122//28 121//27 124//28
f 125//29 123//27 126//29
f 123//27 125//29 121//27
f 124//28 127//30 122//28
f 127//30 124//28 128//30
f 129//31 125//29 126//29
f 125//29 129//31 130//31
f 128//30 131//32 127//30
f 131//32 128//30 132//32
f 133//33 130//31 129//31
f 130//31 133//33 134//33
f 132//32 135//34 131//32
f 135//34 132//32 136//34
f 137//35 134//33 133//33
f 134//33 137//35 138//35
f 136//34 139//36 135//34
f 139//36 136//34 140//36
f 141//37 138//35 137//35
f 138//35 141//37 142//37
f 143//38 139//36 140//36
f 139//36 143//38 144//38
f 145//39 142//37 141//37
f 142//37 145//39 146//39
f 147//40 144//38 143//38
f 144//38 147//40 148//40
f 149//41 146//39 145//39
f 146//39 149//41 150//41
f 151//42 148//40 147//40
f 148//40 151//42 152//42
f 153//43 149//41 154//43
f 149//41 153//43 150//41
f 155//44 152//42 151//42
f 152//42 155//44 156//44
f 157//45 154//43 158//45
f 154//43 157//45 153//43
f 159//46 156//44 155//44
f 156//44 159//46 160//46
f 161//47 158//45 162//47
f 158//45 161//47 157//45
f 163//48 160//46 159//46
f 160//46 163//48 164//48
f 165//49 162//47 166//49
f 162//47 165//49 161//47
f 163//48 167//50 164//48
f 167//50 163//48 168//50
f 168//50 166//49 167//50
f 166//49 168//50 165//49
o SketchUp_ID18.007
v -0.045586 0.209340 0.017414
v -0.045586 0.209340 -0.031357
v -0.048694 0.209340 -0.006972
v -0.044193 0.209340 -0.006972
v -0.041230 0.209340 0.016283
v -0.036475 0.209340 0.040138
v -0.032546 0.209340 0.037939
v -0.021981 0.209340 0.059651
v -0.018747 0.209340 0.056517
v -0.003092 0.209340 0.074624
v -0.000787 0.209340 0.070754
v 0.018904 0.209340 0.084036
v 0.020105 0.209340 0.079694
v 0.042509 0.209340 0.087247
v 0.042509 0.209340 0.082741
v 0.066114 0.209340 0.084036
v 0.064914 0.209340 0.079694
v 0.085806 0.209340 0.070754
v 0.088111 0.209340 0.074624
v 0.103766 0.209340 0.056517
v 0.107000 0.209340 0.059651
v 0.117565 0.209340 0.037939
v 0.121494 0.209340 0.040138
v 0.126248 0.209340 0.016283
v 0.130605 0.209340 0.017414
v 0.129212 0.209340 -0.006972
v -0.041230 0.209340 -0.030226
v -0.036475 0.209340 -0.054081
v -0.032546 0.209340 -0.051883
v -0.021981 0.209340 -0.073594
v -0.018747 0.209340 -0.070460
v -0.003092 0.209340 -0.088567
v -0.000787 0.209340 -0.084697
v 0.018904 0.209340 -0.097979
v 0.020105 0.209340 -0.093637
v 0.042509 0.209340 -0.101190
v 0.042509 0.209340 -0.096684
v 0.064914 0.209340 -0.093637
v 0.066114 0.209340 -0.097979
v 0.085806 0.209340 -0.084697
v 0.088111 0.209340 -0.088567
v 0.103766 0.209340 -0.070460
v 0.107000 0.209340 -0.073594
v 0.117565 0.209340 -0.051883
v 0.121494 0.209340 -0.054081
v 0.126248 0.209340 -0.030226
v 0.130605 0.209340 -0.031357
v 0.133713 0.209340 -0.006972
v 0.130605 0.005158 -0.031357
v 0.133713 0.005158 -0.006972
v 0.121494 0.005158 -0.054081
v 0.107000 0.005158 -0.073594
v 0.088111 0.005158 -0.088567
v 0.066114 0.005158 -0.097979
v 0.042509 0.005158 -0.101190
v 0.018904 0.005158 -0.097979
v -0.003092 0.005158 -0.088567
v -0.021981 0.005158 -0.073594
v -0.036475 0.005158 -0.054081
v -0.045586 0.005158 -0.031357
v -0.048694 0.005158 -0.006972
v -0.045586 0.005158 0.017414
v -0.036475 0.005158 0.040138
v -0.021981 0.005158 0.059651
v -0.003092 0.005158 0.074624
v 0.018904 0.005158 0.084036
v 0.042509 0.005158 0.087247
v 0.066114 0.005158 0.084036
v 0.088111 0.005158 0.074624
v 0.107000 0.005158 0.059651
v 0.121494 0.005158 0.040138
v 0.130605 0.005158 0.017414
vn -0.7100 0.6796 0.1843
vn -0.7100 0.6796 -0.1843
vn -0.7335 0.6797 0.0000
vn 0.0000 1.0000 0.0000
vn -0.6404 0.6793 0.3583
vn -0.5273 0.6789 0.5109
vn -0.3760 0.6784 0.6311
vn -0.1958 0.6781 0.7084
vn 0.0000 0.6780 0.7350
vn 0.1958 0.6781 0.7084
vn 0.3760 0.6784 0.6311
vn 0.5273 0.6789 0.5109
vn 0.6404 0.6793 0.3583
vn 0.7100 0.6796 0.1843
vn -0.6404 0.6793 -0.3583
vn -0.5273 0.6789 -0.5109
vn -0.3760 0.6784 -0.6311
vn -0.1958 0.6781 -0.7084
vn 0.0000 0.6780 -0.7350
vn 0.1958 0.6781 -0.7084
vn 0.3760 0.6784 -0.6311
vn 0.5273 0.6789 -0.5109
vn 0.6404 0.6793 -0.3583
vn 0.7100 0.6796 -0.1843
vn 0.7335 0.6797 0.0000
vn 0.9679 0.0000 -0.2513
vn 1.0000 0.0000 0.0000
vn 0.8727 0.0000 -0.4882
vn 0.7181 0.0000 -0.6959
vn 0.5118 0.0000 -0.8591
vn 0.2665 0.0000 -0.9638
vn 0.0000 0.0000 -1.0000
vn -0.2665 0.0000 -0.9638
vn -0.5118 0.0000 -0.8591
vn -0.7181 0.0000 -0.6959
vn -0.8727 0.0000 -0.4882
vn -0.9679 0.0000 -0.2513
vn -1.0000 0.0000 0.0000
vn -0.9679 0.0000 0.2513
vn -0.8727 0.0000 0.4882
vn -0.7181 0.0000 0.6959
vn -0.5118 0.0000 0.8591
vn -0.2665 0.0000 0.9638
vn 0.0000 0.0000 1.0000
vn 0.2665 0.0000 0.9638
vn 0.5118 0.0000 0.8591
vn 0.7181 0.0000 0.6959
vn 0.8727 0.0000 0.4882
vn 0.9679 0.0000 0.2513
g SketchUp_ID18.007_Color_C05
usemtl Color_C05
s 1
f 169//51 170//52 171//53
f 170//52 169//51 172//54
f 172//54 169//51 173//54
f 173//54 169//51 174//55
f 173//54 174//55 175//54
f 175//54 174//55 176//56
f 175//54 176//56 177//54
f 177//54 176//56 178//57
f 177//54 178//57 179//54
f 179//54 178//57 180//58
f 179//54 180//58 181//54
f 181//54 180//58 182//59
f 181//54 182//59 183//54
f 183//54 182//59 184//60
f 183//54 184//60 185//54
f 185//54 184//60 186//54
f 186//54 184//60 187//61
f 186//54 187//61 188//54
f 188//54 187//61 189//62
f 188//54 189//62 190//54
f 190//54 189//62 191//63
f 190//54 191//63 192//54
f 192//54 191//63 193//64
f 192//54 193//64 194//54
f 170//52 195//54 196//65
f 195//54 170//52 172//54
f 196//65 195//54 197//54
f 196//65 197//54 198//66
f 198//66 197//54 199//54
f 198//66 199//54 200//67
f 200//67 199//54 201//54
f 200//67 201//54 202//68
f 202//68 201//54 203//54
f 202//68 203//54 204//69
f 204//69 203//54 205//54
f 204//69 205//54 206//54
f 204//69 206//54 207//70
f 207//70 206//54 208//54
f 207//70 208//54 209//71
f 209//71 208//54 210//54
f 209//71 210//54 211//72
f 211//72 210//54 212//54
f 211//72 212//54 213//73
f 213//73 212//54 214//54
f 213//73 214//54 215//74
f 215//74 214//54 194//54
f 215//74 194//54 193//64
f 215//74 193//64 216//75
f 217//76 216//75 218//77
f 216//75 217//76 215//74
f 219//78 215//74 217//76
f 215//74 219//78 213//73
f 220//79 213//73 219//78
f 213//73 220//79 211//72
f 209//71 220//79 221//80
f 220//79 209//71 211//72
f 207//70 221//80 222//81
f 221//80 207//70 209//71
f 204//69 222//81 223//82
f 222//81 204//69 207//70
f 202//68 223//82 224//83
f 223//82 202//68 204//69
f 200//67 224//83 225//84
f 224//83 200//67 202//68
f 198//66 225//84 226//85
f 225//84 198//66 200//67
f 198//66 227//86 196//65
f 227//86 198//66 226//85
f 196//65 228//87 170//52
f 228//87 196//65 227//86
f 170//52 229//88 171//53
f 229//88 170//52 228//87
f 171//53 230//89 169//51
f 230//89 171//53 229//88
f 169//51 231//90 174//55
f 231//90 169//51 230//89
f 174//55 232//91 176//56
f 232//91 174//55 231//90
f 178//57 232//91 233//92
f 232//91 178//57 176//56
f 180//58 233//92 234//93
f 233//92 180//58 178//57
f 182//59 234//93 235//94
f 234//93 182//59 180//58
f 184//60 235//94 236//95
f 235//94 184//60 182//59
f 187//61 236//95 237//96
f 236//95 187//61 184//60
f 189//62 237//96 238//97
f 237//96 189//62 187//61
f 239//98 189//62 238//97
f 189//62 239//98 191//63
f 240//99 191//63 239//98
f 191//63 240//99 193//64
f 218//77 193//64 240//99
f 193//64 218//77 216//75
